<svg width="128" height="128" viewBox="0 0 128 128" fill="none" xmlns="http://www.w3.org/2000/svg">
<g clip-path="url(#clip0_2_30)">
<path d="M104 33.5522V125.495C104 126.386 102.923 126.832 102.293 126.202L45.2929 69.2025C45.1054 69.0149 45 68.7606 45 68.4954V54.3999C45 53.509 46.0771 53.0628 46.7071 53.6927L86.9358 93.9215C88.8257 95.8114 92.0571 94.4729 92.0571 91.8001V39.3618C92.0571 38.5661 91.7411 37.8031 91.1785 37.2404L79.5691 25.6311C79.3815 25.4435 79.2762 25.1892 79.2762 24.924V10.8284C79.2762 9.93752 80.3533 9.49136 80.9833 10.1213L103.707 32.8451C103.895 33.0327 104 33.287 104 33.5522Z" fill="white" stroke="black" stroke-width="2"/>
<path d="M23 94.7716V2.82843C23 1.04662 25.1543 0.154284 26.4142 1.41421L83.4142 58.4142C83.7893 58.7893 84 59.298 84 59.8284V73.924C84 75.7058 81.8457 76.5981 80.5858 75.3382L40.3571 35.1094C39.0971 33.8495 36.9429 34.7419 36.9429 36.5237V88.962C36.9429 89.4925 37.1536 90.0012 37.5286 90.3763L49.138 101.986C49.5131 102.361 49.7238 102.869 49.7238 103.4V117.495C49.7238 119.277 47.5695 120.17 46.3096 118.91L23.5858 96.1858C23.2107 95.8107 23 95.302 23 94.7716Z" fill="black"/>
</g>
<defs>
<clipPath id="clip0_2_30">
<rect width="128" height="128" fill="white"/>
</clipPath>
</defs>
</svg>
